<svg width="22" height="22" viewBox="0 0 22 22" fill="none" xmlns="http://www.w3.org/2000/svg">
<path fill-rule="evenodd" clip-rule="evenodd" d="M3.31005 22C2.43188 22 1.59769 21.6512 0.969294 21.0307C0.340903 20.4102 0 19.5681 0 18.6899V3.31005C0 2.43188 0.348757 1.59769 0.969294 0.969295C1.58983 0.340903 2.43188 0 3.31005 0H18.6899C19.5681 0 20.4023 0.348758 21.0307 0.969295C21.6591 1.58983 22 2.43188 22 3.31005V18.6899C22 19.5681 21.6512 20.4023 21.0307 21.0307C20.4102 21.6591 19.5681 22 18.6899 22H3.31005ZM16.7419 12.7155H14.4169V20.3976H18.6899C18.9144 20.3982 19.1367 20.3545 19.3442 20.2689C19.5516 20.1833 19.7401 20.0575 19.8988 19.8988C20.0575 19.7401 20.1833 19.5516 20.2689 19.3442C20.3545 19.1367 20.3982 18.9144 20.3976 18.6899V3.31005C20.3978 3.08574 20.3538 2.86359 20.268 2.65632C20.1823 2.44904 20.0565 2.26071 19.8979 2.1021C19.7393 1.94349 19.551 1.81771 19.3437 1.73197C19.1364 1.64622 18.9143 1.60219 18.6899 1.6024H3.31005C2.85754 1.60364 2.42391 1.78396 2.10393 2.10393C1.78396 2.42391 1.60364 2.85754 1.6024 3.31005V18.6899C1.60364 19.1425 1.78396 19.5761 2.10393 19.8961C2.42391 20.216 2.85754 20.3964 3.31005 20.3976H11.8562V12.7155H9.29549V10.1548H11.8562V8.77864C11.8562 6.17081 13.1255 5.02399 15.2966 5.02399C16.3131 5.02399 16.8598 5.09783 17.119 5.13396L17.1347 5.13553V7.58626H15.658C14.9133 7.58626 14.5614 7.90517 14.4546 8.5477C14.4289 8.71507 14.4168 8.88424 14.4185 9.05356V10.1485H17.1048L16.7388 12.7092L16.7419 12.7155Z" fill="white"/>
</svg>
