<svg width="22" height="22" viewBox="0 0 22 22" fill="none" xmlns="http://www.w3.org/2000/svg">
<path d="M3.30957 0.5H18.6904C19.4341 0.500128 20.143 0.795182 20.6797 1.3252C21.21 1.84896 21.4999 2.56149 21.5 3.30957V18.6904C21.4999 19.4341 21.2048 20.143 20.6748 20.6797C20.151 21.21 19.4385 21.4999 18.6904 21.5H3.30957C2.56591 21.4999 1.85703 21.2048 1.32031 20.6748C0.790032 20.151 0.500125 19.4385 0.5 18.6904V3.30957L0.513672 3.0332C0.577337 2.39182 0.86129 1.79009 1.3252 1.32031C1.78355 0.856263 2.38648 0.576469 3.03125 0.513672L3.30957 0.5ZM3.30859 1.10254C2.72398 1.10417 2.16339 1.33661 1.75 1.75C1.33661 2.16339 1.10417 2.72398 1.10254 3.30859V18.6914C1.10417 19.276 1.33661 19.8366 1.75 20.25C2.16339 20.6634 2.72398 20.8958 3.30859 20.8975H12.3564V12.2158H9.7959V10.6553H12.3564V8.77832C12.3565 7.54844 12.656 6.75561 13.123 6.26953C13.5867 5.78716 14.2957 5.52441 15.2969 5.52441C15.9045 5.52442 16.3361 5.5524 16.6348 5.58105V7.08594H15.6582C15.2204 7.08594 14.8154 7.18 14.499 7.44043C14.1799 7.70333 14.0262 8.07338 13.9609 8.46582L13.96 8.47168C13.9305 8.66417 13.9173 8.85898 13.9189 9.05371H13.918V10.6484H16.5283L16.3047 12.2158H13.917V20.8975H18.6904V20.8965C18.9801 20.897 19.2674 20.8419 19.5352 20.7314C19.8035 20.6207 20.0467 20.4572 20.252 20.252C20.4572 20.0467 20.6207 19.8035 20.7314 19.5352C20.8422 19.2668 20.8983 18.9788 20.8975 18.6885V3.30957C20.8976 3.01984 20.8412 2.73257 20.7305 2.46484C20.6196 2.19688 20.456 1.95408 20.251 1.74902C20.0459 1.54397 19.8031 1.3804 19.5352 1.26953C19.2674 1.15878 18.9802 1.1024 18.6904 1.10254H3.30859Z" fill="black" stroke="black"/>
</svg>
