<svg width="24" height="24" viewBox="0 0 24 24" fill="none" xmlns="http://www.w3.org/2000/svg">
<path d="M17.5368 4.94669H18.1363M0.75 8.42395C0.75 5.73807 0.75 4.39513 1.27279 3.36874C1.73261 2.46631 2.46631 1.73261 3.36874 1.27279C4.39513 0.75 5.73807 0.75 8.42395 0.75H14.659C17.3449 0.75 18.6879 0.75 19.7143 1.27279C20.6167 1.73261 21.3504 2.46631 21.8102 3.36874C22.333 4.39513 22.333 5.73807 22.333 8.42395V14.659C22.333 17.3449 22.333 18.6879 21.8102 19.7143C21.3504 20.6167 20.6167 21.3504 19.7143 21.8102C18.6879 22.333 17.3449 22.333 14.659 22.333H8.42395C5.73807 22.333 4.39513 22.333 3.36874 21.8102C2.46631 21.3504 1.73261 20.6167 1.27279 19.7143C0.75 18.6879 0.75 17.3449 0.75 14.659V8.42395Z" stroke="black" stroke-width="1.5" stroke-linecap="round" stroke-linejoin="round"/>
<path d="M15.6925 10.9263C15.7733 11.4715 15.7459 12.0273 15.6119 12.5619C15.4779 13.0966 15.2399 13.5995 14.9115 14.0422C14.5831 14.4848 14.1707 14.8585 13.6979 15.1417C13.2251 15.425 12.7011 15.6124 12.1559 15.6932C11.6107 15.7739 11.0549 15.7465 10.5203 15.6125C9.98569 15.4785 9.4827 15.2405 9.04005 14.9121C8.1461 14.2488 7.55223 13.2576 7.38909 12.1565C7.22595 11.0554 7.50691 9.93462 8.17015 9.04066C8.83339 8.14671 9.82459 7.55284 10.9257 7.3897C12.0268 7.22656 13.1476 7.50751 14.0416 8.17076C14.9355 8.834 15.5294 9.8252 15.6925 10.9263Z" stroke="black" stroke-width="1.5" stroke-linecap="round" stroke-linejoin="round"/>
</svg>
